<svg version="1.1" viewBox="0.0 0.0 128.0 128.0" fill="none" stroke="none" stroke-linecap="square" stroke-miterlimit="10" xmlns:xlink="http://www.w3.org/1999/xlink" xmlns="http://www.w3.org/2000/svg"><clipPath id="p.0"><path d="m0 0l128.0 0l0 128.0l-128.0 0l0 -128.0z" clip-rule="nonzero"/></clipPath><g clip-path="url(#p.0)"><path fill="#000000" fill-opacity="0.0" d="m0 0l128.0 0l0 128.0l-128.0 0z" fill-rule="evenodd"/><path fill="#000000" fill-opacity="0.0" d="m11.528149 11.379755l107.2126 0l0 107.2126l-107.2126 0z" fill-rule="evenodd"/><path stroke="#000000" stroke-width="12.0" stroke-linejoin="round" stroke-linecap="butt" d="m11.528149 11.379755l107.2126 0l0 107.2126l-107.2126 0z" fill-rule="evenodd"/><path fill="#000000" fill-opacity="0.0" d="m65.134445 11.379755l0 111.74803" fill-rule="evenodd"/><path stroke="#000000" stroke-width="12.0" stroke-linejoin="round" stroke-linecap="butt" d="m65.134445 11.379755l0 111.74803" fill-rule="evenodd"/><path fill="#000000" fill-opacity="0.0" d="m15.627296 29.44357l37.76378 0l0 71.08661l-37.76378 0z" fill-rule="evenodd"/><path fill="#000000" d="m40.51792 79.40357l-3.75 0l0 -23.890629q-1.359375 1.296875 -3.5625 2.59375q-2.1875 1.28125 -3.9375 1.921875l0 -3.625q3.15625 -1.46875 5.5 -3.578125q2.359375 -2.109375 3.328125 -4.078125l2.421875 0l0 30.656254z" fill-rule="nonzero"/><path fill="#000000" fill-opacity="0.0" d="m67.37533 29.44357l52.503937 0l0 71.08661l-52.503937 0z" fill-rule="evenodd"/><path fill="#000000" d="m97.84408 75.7942l0 3.609375l-20.171875 0q-0.046875 -1.359375 0.4375 -2.609375q0.765625 -2.0625 2.453125 -4.0625q1.703125 -2.0 4.921875 -4.609375q4.96875 -4.09375 6.71875 -6.468754q1.75 -2.390625 1.75 -4.515625q0 -2.234375 -1.59375 -3.765625q-1.59375 -1.53125 -4.15625 -1.53125q-2.703125 0 -4.328125 1.625q-1.625 1.625 -1.640625 4.5l-3.859375 -0.390625q0.390625 -4.3125 2.96875 -6.5625q2.59375 -2.265625 6.9375 -2.265625q4.40625 0 6.96875 2.4375q2.5625 2.4375 2.5625 6.03125q0 1.84375 -0.75 3.609375q-0.75 1.765625 -2.5 3.7343788q-1.734375 1.953125 -5.78125 5.359375q-3.359375 2.84375 -4.328125 3.859375q-0.953125 1.0 -1.578125 2.015625l14.96875 0z" fill-rule="nonzero"/></g></svg>