<svg version="1.1" viewBox="0.0 0.0 128.0 128.0" fill="none" stroke="none" stroke-linecap="square" stroke-miterlimit="10" xmlns:xlink="http://www.w3.org/1999/xlink" xmlns="http://www.w3.org/2000/svg"><clipPath id="p.0"><path d="m0 0l128.0 0l0 128.0l-128.0 0l0 -128.0z" clip-rule="nonzero"/></clipPath><g clip-path="url(#p.0)"><path fill="#000000" fill-opacity="0.0" d="m0 0l128.0 0l0 128.0l-128.0 0z" fill-rule="evenodd"/><path fill="#000000" fill-opacity="0.0" d="m11.528149 11.379755l107.2126 0l0 107.2126l-107.2126 0z" fill-rule="evenodd"/><path stroke="#000000" stroke-width="12.0" stroke-linejoin="round" stroke-linecap="butt" d="m11.528149 11.379755l107.2126 0l0 107.2126l-107.2126 0z" fill-rule="evenodd"/><path fill="#000000" fill-opacity="0.0" d="m118.74016 11.380586l0 79.11811l-77.76378 0l0 -79.11811z" fill-rule="evenodd"/><path stroke="#000000" stroke-width="12.0" stroke-linejoin="round" stroke-linecap="butt" d="m118.74016 11.380586l0 79.11811l-77.76378 0l0 -79.11811z" fill-rule="evenodd"/><path fill="#000000" fill-opacity="0.0" d="m109.06883 151.25902l-106.708664 0" fill-rule="evenodd"/><path stroke="#000000" stroke-width="12.0" stroke-linejoin="round" stroke-linecap="butt" d="m109.06883 151.25902l-106.708664 0" fill-rule="evenodd"/><path fill="#000000" fill-opacity="0.0" d="m109.06883 186.31413l-106.708664 0" fill-rule="evenodd"/><path stroke="#000000" stroke-width="12.0" stroke-linejoin="round" stroke-linecap="butt" d="m109.06883 186.31413l-106.708664 0" fill-rule="evenodd"/><path fill="#000000" fill-opacity="0.0" d="m151.12862 101.93964l54.078735 0l0 51.716537l-54.078735 0z" fill-rule="evenodd"/><path fill="#000000" d="m161.25362 131.50838l2.34375 -0.3125q0.390625 1.984375 1.359375 2.875q0.984375 0.875 2.375 0.875q1.640625 0 2.78125 -1.140625q1.140625 -1.15625 1.140625 -2.84375q0 -1.625 -1.0625 -2.671875q-1.046875 -1.0468674 -2.671875 -1.0468674q-0.65625 0 -1.65625 0.265625l0.265625 -2.0625q0.234375 0.03125 0.375 0.03125q1.5 0 2.6875 -0.78125q1.203125 -0.78125 1.203125 -2.40625q0 -1.296875 -0.875 -2.140625q-0.859375 -0.84375 -2.25 -0.84375q-1.359375 0 -2.28125 0.859375q-0.90625 0.859375 -1.15625 2.578125l-2.34375 -0.421875q0.421875 -2.34375 1.9375 -3.640625q1.53125 -1.296875 3.796875 -1.296875q1.5625 0 2.875 0.671875q1.3125 0.671875 2.0 1.828125q0.703125 1.15625 0.703125 2.453125q0 1.234375 -0.671875 2.25q-0.65625 1.015625 -1.953125 1.625q1.6875 0.390625 2.625 1.625q0.9375 1.2187424 0.9375 3.0624924q0 2.5 -1.828125 4.25q-1.8125 1.734375 -4.59375 1.734375q-2.515625 0 -4.171875 -1.5q-1.65625 -1.5 -1.890625 -3.875z" fill-rule="nonzero"/></g></svg>