<svg version="1.1" viewBox="0.0 0.0 128.0 128.0" fill="none" stroke="none" stroke-linecap="square" stroke-miterlimit="10" xmlns:xlink="http://www.w3.org/1999/xlink" xmlns="http://www.w3.org/2000/svg"><clipPath id="p.0"><path d="m0 0l128.0 0l0 128.0l-128.0 0l0 -128.0z" clip-rule="nonzero"/></clipPath><g clip-path="url(#p.0)"><path fill="#000000" fill-opacity="0.0" d="m0 0l128.0 0l0 128.0l-128.0 0z" fill-rule="evenodd"/><path fill="#000000" fill-opacity="0.0" d="m11.528149 11.379755l107.2126 0l0 107.2126l-107.2126 0z" fill-rule="evenodd"/><path stroke="#000000" stroke-width="12.0" stroke-linejoin="round" stroke-linecap="butt" d="m11.528149 11.379755l107.2126 0l0 107.2126l-107.2126 0z" fill-rule="evenodd"/><path fill="#000000" fill-opacity="0.0" d="m46.352295 11.631724l0 106.708664" fill-rule="evenodd"/><path stroke="#000000" stroke-width="12.0" stroke-linejoin="round" stroke-linecap="butt" d="m46.352295 11.631724l0 106.708664" fill-rule="evenodd"/><path fill="#000000" fill-opacity="0.0" d="m8.587927 29.44357l37.76378 0l0 71.08661l-37.76378 0z" fill-rule="evenodd"/><path fill="#000000" d="m33.47855 79.40357l-3.749998 0l0 -23.890629q-1.359375 1.296875 -3.5625 2.59375q-2.1875 1.28125 -3.9375 1.921875l0 -3.625q3.15625 -1.46875 5.5 -3.578125q2.359375 -2.109375 3.328125 -4.078125l2.421873 0l0 30.656254z" fill-rule="nonzero"/><path fill="#000000" fill-opacity="0.0" d="m43.435696 29.44357l54.07874 0l0 71.08661l-54.07874 0z" fill-rule="evenodd"/><path fill="#000000" d="m73.90444 75.7942l0 3.609375l-20.171871 0q-0.046875 -1.359375 0.4375 -2.609375q0.765625 -2.0625 2.453125 -4.0625q1.703125 -2.0 4.921875 -4.609375q4.968746 -4.09375 6.718746 -6.468754q1.75 -2.390625 1.75 -4.515625q0 -2.234375 -1.59375 -3.765625q-1.59375 -1.53125 -4.15625 -1.53125q-2.7031212 0 -4.328121 1.625q-1.625 1.625 -1.640625 4.5l-3.859375 -0.390625q0.390625 -4.3125 2.96875 -6.5625q2.59375 -2.265625 6.937496 -2.265625q4.40625 0 6.96875 2.4375q2.5625 2.4375 2.5625 6.03125q0 1.84375 -0.75 3.609375q-0.75 1.765625 -2.5 3.7343788q-1.734375 1.953125 -5.78125 5.359375q-3.3593712 2.84375 -4.328121 3.859375q-0.953125 1.0 -1.578125 2.015625l14.968746 0z" fill-rule="nonzero"/><path fill="#000000" fill-opacity="0.0" d="m81.40741 11.631724l0 106.708664" fill-rule="evenodd"/><path stroke="#000000" stroke-width="12.0" stroke-linejoin="round" stroke-linecap="butt" d="m81.40741 11.631724l0 106.708664" fill-rule="evenodd"/><path fill="#000000" fill-opacity="0.0" d="m78.585304 29.44357l54.078743 0l0 71.08661l-54.078743 0z" fill-rule="evenodd"/><path fill="#000000" d="m89.38218 71.34107l3.75 -0.5q0.640625 3.1875 2.1875 4.59375q1.5625 1.40625 3.78125 1.40625q2.640625 0 4.46875 -1.828125q1.828125 -1.84375 1.828125 -4.546875q0 -2.578125 -1.6875 -4.25q-1.6875 -1.6875 -4.296875 -1.6875q-1.0625 0 -2.640625 0.421875l0.421875 -3.2968788q0.375 0.046875 0.59375 0.046875q2.390625 0 4.3125 -1.25q1.921875 -1.25 1.921875 -3.859375q0 -2.0625 -1.40625 -3.40625q-1.390625 -1.359375 -3.59375 -1.359375q-2.1875 0 -3.65625 1.375q-1.453125 1.375 -1.859375 4.125l-3.75 -0.671875q0.6875 -3.765625 3.125 -5.828125q2.4375 -2.078125 6.046875 -2.078125q2.5 0 4.609375 1.078125q2.109375 1.0625 3.21875 2.921875q1.109375 1.84375 1.109375 3.9375q0 1.96875 -1.0625 3.59375q-1.0625 1.625 -3.140625 2.59375q2.703125 0.625 4.203125 2.5937538q1.5 1.96875 1.5 4.921875q0 4.0 -2.921875 6.78125q-2.90625 2.78125 -7.359375 2.78125q-4.015625 0 -6.671875 -2.390625q-2.65625 -2.40625 -3.03125 -6.21875z" fill-rule="nonzero"/></g></svg>