<svg version="1.1" viewBox="0.0 0.0 16.0 16.0" fill="none" stroke="none" stroke-linecap="square" stroke-miterlimit="10" xmlns:xlink="http://www.w3.org/1999/xlink" xmlns="http://www.w3.org/2000/svg"><clipPath id="p.0"><path d="m0 0l16.0 0l0 16.0l-16.0 0l0 -16.0z" clip-rule="nonzero"/></clipPath><g clip-path="url(#p.0)"><path fill="#000000" fill-opacity="0.0" d="m0 0l16.0 0l0 16.0l-16.0 0z" fill-rule="evenodd"/><path fill="#000000" fill-opacity="0.0" d="m1.0393701 8.0l0 0c0 -3.8442497 3.1163802 -6.96063 6.96063 -6.96063l0 0c1.8460741 0 3.616537 0.73335004 4.9219084 2.0387213c1.3053713 1.3053715 2.038721 3.075835 2.038721 4.9219084l0 0c0 3.8442497 -3.1163797 6.9606295 -6.9606295 6.9606295l0 0c-3.8442497 0 -6.96063 -3.1163797 -6.96063 -6.9606295z" fill-rule="evenodd"/><path fill="#000000" fill-opacity="0.0" d="m3.0780914 3.0780914l9.826772 9.826772" fill-rule="evenodd"/><path stroke="#38761d" stroke-width="3.0" stroke-linejoin="round" stroke-linecap="butt" d="m3.0780914 3.0780914l9.826772 9.826772" fill-rule="evenodd"/><path fill="#000000" fill-opacity="0.0" d="m12.921908 3.0780914l-9.826771 9.826772" fill-rule="evenodd"/><path stroke="#1155cc" stroke-width="3.0" stroke-linejoin="round" stroke-linecap="butt" d="m12.921908 3.0780914l-9.826771 9.826772" fill-rule="evenodd"/><path fill="#000000" fill-opacity="0.0" d="m8.0 1.0393701l0 13.921259" fill-rule="evenodd"/><path stroke="#990000" stroke-width="3.0" stroke-linejoin="round" stroke-linecap="butt" d="m8.0 1.0393701l0 13.921259" fill-rule="evenodd"/><path fill="#000000" fill-opacity="0.0" d="m1.0393701 8.0l13.921259 0" fill-rule="evenodd"/><path stroke="#bf9000" stroke-width="3.0" stroke-linejoin="round" stroke-linecap="butt" d="m1.0393701 8.0l13.921259 0" fill-rule="evenodd"/></g></svg>